<svg viewBox="0 0 200 200" xmlns="http://www.w3.org/2000/svg">
    <path fill="currentColor" d="M44.7,-76.4C58.8,-69.2,71.8,-59.1,79.6,-45.8C87.4,-32.6,90,-16.3,89.1,-0.5C88.1,15.3,83.5,30.6,75.3,43.9C67.1,57.1,55.3,68.3,41.6,76.3C27.9,84.3,14,89.1,-0.9,90.6C-15.8,92.1,-31.6,90.3,-45.8,83.7C-60,77.1,-72.6,65.6,-79.4,51.4C-86.2,37.1,-87.2,18.6,-86.9,0.2C-86.6,-18.2,-85,-36.4,-77.1,-51.3C-69.2,-66.3,-55,-78,-40.3,-84.1C-25.6,-90.2,-10.3,-90.7,3.4,-86.8C17.1,-82.8,34.2,-74.4,44.7,-76.4Z" transform="translate(100 100)" />
</svg>