<svg viewBox="0 0 200 200" xmlns="http://www.w3.org/2000/svg">
    <path fill="currentColor" d="M45.7,-78.3C58.9,-71.1,69.2,-58.3,76.9,-44.1C84.6,-29.9,89.7,-14.9,89.3,-0.2C88.9,14.5,83,29,74.8,42.1C66.6,55.2,56.1,66.8,43.1,74.7C30.1,82.5,15.1,86.5,0.1,86.3C-14.8,86.1,-29.6,81.8,-43.1,74.4C-56.6,67,-68.8,56.5,-77.4,43.3C-86,30.1,-91,15,-90.8,0.1C-90.6,-14.8,-85.2,-29.7,-76.7,-42.6C-68.2,-55.5,-56.6,-66.5,-43.3,-73.7C-30,-80.9,-15,-84.3,0.8,-85.6C16.6,-86.9,33.2,-86.1,45.7,-78.3Z" transform="translate(100 100)" />
</svg>

